<svg version="1.1" id="Layer_1" xmlns="http://www.w3.org/2000/svg" x="0" y="0" viewBox="0 0 31 31" xml:space="preserve"><style>.st0{fill:#fff}</style><path class="st0" d="M7.79 5.67C9.92 4 12.59 3 15.5 3 22.4 3 28 8.6 28 15.5c0 2.91-1 5.58-2.67 7.71l2.14 2.14c2.2-2.68 3.53-6.11 3.53-9.85C31 6.94 24.06 0 15.5 0c-3.74 0-7.17 1.33-9.85 3.53l2.14 2.14zm15.42 19.66C21.08 27 18.41 28 15.5 28 8.6 28 3 22.4 3 15.5c0-2.91 1-5.58 2.67-7.71L3.53 5.65C1.33 8.33 0 11.76 0 15.5 0 24.06 6.94 31 15.5 31c3.74 0 7.17-1.33 9.85-3.53l-2.14-2.14z"/><g id="Layer_2"><path class="st0" d="M19 17h-7c-.83 0-1.5-.67-1.5-1.5S11.17 14 12 14h7c.83 0 1.5.67 1.5 1.5S19.83 17 19 17z"/><path class="st0" d="M14 19v-7c0-.83.67-1.5 1.5-1.5s1.5.67 1.5 1.5v7c0 .83-.67 1.5-1.5 1.5S14 19.83 14 19z"/></g></svg>