<?xml version="1.0" encoding="utf-8"?>
<!-- Generator: Adobe Illustrator 24.1.0, SVG Export Plug-In . SVG Version: 6.00 Build 0)  -->
<svg version="1.1" id="Layer_1" xmlns="http://www.w3.org/2000/svg" xmlns:xlink="http://www.w3.org/1999/xlink" x="0px" y="0px"
	 viewBox="0 0 31 31" style="enable-background:new 0 0 31 31;" xml:space="preserve">
<style type="text/css">
	.st0{fill:#FFFFFF;}
</style>
<g>
	<path class="st0" d="M7.79,5.67C9.92,4,12.59,3,15.5,3C22.4,3,28,8.6,28,15.5c0,2.91-1,5.58-2.67,7.71l2.14,2.14
		C29.67,22.67,31,19.24,31,15.5C31,6.94,24.06,0,15.5,0c-3.74,0-7.17,1.33-9.85,3.53L7.79,5.67z"/>
	<path class="st0" d="M23.21,25.33C21.08,27,18.41,28,15.5,28C8.6,28,3,22.4,3,15.5c0-2.91,1-5.58,2.67-7.71L3.53,5.65
		C1.33,8.33,0,11.76,0,15.5C0,24.06,6.94,31,15.5,31c3.74,0,7.17-1.33,9.85-3.53L23.21,25.33z"/>
</g>
<g id="Layer_2">
	<g>
		<path class="st0" d="M19,17h-7c-0.83,0-1.5-0.67-1.5-1.5v0c0-0.83,0.67-1.5,1.5-1.5h7c0.83,0,1.5,0.67,1.5,1.5v0
			C20.5,16.33,19.83,17,19,17z"/>
		<path class="st0" d="M14,19v-7c0-0.83,0.67-1.5,1.5-1.5h0c0.83,0,1.5,0.67,1.5,1.5v7c0,0.83-0.67,1.5-1.5,1.5h0
			C14.67,20.5,14,19.83,14,19z"/>
	</g>
</g>
</svg>
