<?xml version="1.0" encoding="utf-8"?>
<!-- Generator: Adobe Illustrator 24.1.0, SVG Export Plug-In . SVG Version: 6.00 Build 0)  -->
<svg version="1.1" id="Layer_1" xmlns="http://www.w3.org/2000/svg" xmlns:xlink="http://www.w3.org/1999/xlink" x="0px" y="0px"
	 viewBox="0 0 12 12" style="enable-background:new 0 0 12 12;" xml:space="preserve">
<style type="text/css">
	.st0{fill:#6B2929;}
</style>
<g>
	<path class="st0" d="M11,11L11,11c-0.6,0.6-1.5,0.6-2.1,0L1,3.1C0.4,2.5,0.4,1.6,1,1l0,0c0.6-0.6,1.5-0.6,2.1,0L11,8.9
		C11.6,9.5,11.6,10.4,11,11z"/>
	<path class="st0" d="M1,11L1,11c-0.6-0.6-0.6-1.5,0-2.1L8.9,1c0.6-0.6,1.5-0.6,2.1,0l0,0c0.6,0.6,0.6,1.5,0,2.1L3.1,11
		C2.5,11.6,1.6,11.6,1,11z"/>
</g>
</svg>
