<svg version="1.1" id="Layer_1" xmlns="http://www.w3.org/2000/svg" x="0" y="0" viewBox="0 0 65 65" xml:space="preserve"><path d="M32.5 5c-5.4 0-10.4 1.6-14.7 4.3L12 3.5v16.1h16.1l-6.4-6.4c3.2-1.8 6.8-2.8 10.7-2.8 12.2 0 22.1 9.9 22.1 22.1 0 2.9-.6 5.7-1.6 8.2l4.7 2.8c1.5-3.4 2.3-7.1 2.3-11C60 17.3 47.7 5 32.5 5zm10.7 46.7c-3.2 1.8-6.8 2.8-10.7 2.8-12.2 0-22.1-9.9-22.1-22.1 0-2.7.5-5.4 1.4-7.8l-4.7-2.9C5.8 25.1 5 28.7 5 32.5 5 47.7 17.3 60 32.5 60c5.4 0 10.4-1.6 14.7-4.3l5.8 5.8V45.4H36.8l6.4 6.3z" fill="#fff" id="Layer_3_copy_2"/></svg>